<?xml version="1.0" standalone="no"?>
<!DOCTYPE svg PUBLIC "-//W3C//DTD SVG 20010904//EN"
 "http://www.w3.org/TR/2001/REC-SVG-20010904/DTD/svg10.dtd">
<svg version="1.0" xmlns="http://www.w3.org/2000/svg"
 width="200.000000pt" height="200.000000pt" viewBox="0 0 200.000000 200.000000"
 preserveAspectRatio="xMidYMid meet">

<g transform="translate(0.000000,200.000000) scale(0.100000,-0.100000)"
fill="#000000" stroke="none">
<path d="M351 1557 c-13 -6 -34 -25 -45 -40 -21 -28 -21 -39 -24 -496 -3 -522
-2 -530 58 -565 34 -21 48 -21 662 -21 620 0 627 0 655 21 59 44 58 36 58 549
0 430 -1 473 -18 502 -35 65 -12 63 -699 63 -475 0 -629 -3 -647 -13z m1253
-93 c14 -14 16 -69 16 -456 0 -397 -2 -443 -17 -460 -15 -17 -47 -18 -600 -18
-384 0 -591 4 -604 10 -18 10 -19 26 -19 460 l0 449 22 15 c20 14 94 16 605
16 515 0 583 -2 597 -16z"/>
<path d="M553 1364 c-107 -53 -91 -217 24 -255 44 -14 87 -3 128 33 77 67 62
179 -29 222 -43 20 -82 20 -123 0z"/>
<path d="M1029 1075 c-129 -128 -172 -165 -192 -165 -16 0 -44 16 -72 40 -25
22 -51 40 -57 40 -15 0 -182 -165 -214 -211 -23 -34 -26 -45 -20 -86 3 -26 10
-51 15 -56 4 -4 235 -8 512 -7 385 0 505 3 511 13 4 6 8 79 8 161 l0 149 -142
144 c-91 92 -149 143 -163 143 -12 0 -81 -61 -186 -165z"/>
</g>
</svg>
